<mxfile host="Electron" modified="2024-10-09T18:22:56.407Z" agent="Mozilla/5.0 (Windows NT 10.0; Win64; x64) AppleWebKit/537.36 (KHTML, like Gecko) draw.io/23.1.5 Chrome/120.0.6099.109 Electron/28.1.0 Safari/537.36" etag="uE-8EvxlIj65cW-HSRH5" version="23.1.5" type="device">
  <diagram name="PÃ¡gina-1" id="BAcK5hno5-LHji4Horw2">
    <mxGraphModel dx="1446" dy="789" grid="1" gridSize="10" guides="1" tooltips="1" connect="1" arrows="1" fold="1" page="0" pageScale="1" pageWidth="827" pageHeight="1169" math="0" shadow="0">
      <root>
        <mxCell id="0" />
        <mxCell id="1" parent="0" />
        <mxCell id="ZtOH9ILVSErRl7dzAOX0-1" value="Cliente" style="rounded=0;whiteSpace=wrap;html=1;" vertex="1" parent="1">
          <mxGeometry x="-120" y="280" width="120" height="60" as="geometry" />
        </mxCell>
        <mxCell id="ZtOH9ILVSErRl7dzAOX0-8" style="edgeStyle=orthogonalEdgeStyle;rounded=0;orthogonalLoop=1;jettySize=auto;html=1;exitX=0.5;exitY=1;exitDx=0;exitDy=0;entryX=0.5;entryY=1;entryDx=0;entryDy=0;" edge="1" parent="1" source="ZtOH9ILVSErRl7dzAOX0-3" target="ZtOH9ILVSErRl7dzAOX0-4">
          <mxGeometry relative="1" as="geometry">
            <Array as="points">
              <mxPoint x="860" y="450" />
              <mxPoint x="140" y="450" />
            </Array>
          </mxGeometry>
        </mxCell>
        <mxCell id="ZtOH9ILVSErRl7dzAOX0-3" value="Sistema de logistica" style="rounded=0;whiteSpace=wrap;html=1;" vertex="1" parent="1">
          <mxGeometry x="800" y="290" width="120" height="60" as="geometry" />
        </mxCell>
        <mxCell id="ZtOH9ILVSErRl7dzAOX0-9" style="edgeStyle=orthogonalEdgeStyle;rounded=0;orthogonalLoop=1;jettySize=auto;html=1;exitX=0.5;exitY=0;exitDx=0;exitDy=0;entryX=0.5;entryY=0;entryDx=0;entryDy=0;" edge="1" parent="1" source="ZtOH9ILVSErRl7dzAOX0-4" target="ZtOH9ILVSErRl7dzAOX0-7">
          <mxGeometry relative="1" as="geometry" />
        </mxCell>
        <mxCell id="ZtOH9ILVSErRl7dzAOX0-10" style="edgeStyle=orthogonalEdgeStyle;rounded=0;orthogonalLoop=1;jettySize=auto;html=1;exitX=1;exitY=0.5;exitDx=0;exitDy=0;" edge="1" parent="1" source="ZtOH9ILVSErRl7dzAOX0-4" target="ZtOH9ILVSErRl7dzAOX0-5">
          <mxGeometry relative="1" as="geometry" />
        </mxCell>
        <mxCell id="ZtOH9ILVSErRl7dzAOX0-4" value="Recepcion del&lt;br&gt;pedido en la&lt;br&gt;sucursal" style="ellipse;whiteSpace=wrap;html=1;" vertex="1" parent="1">
          <mxGeometry x="80" y="280" width="120" height="80" as="geometry" />
        </mxCell>
        <mxCell id="ZtOH9ILVSErRl7dzAOX0-11" style="edgeStyle=orthogonalEdgeStyle;rounded=0;orthogonalLoop=1;jettySize=auto;html=1;exitX=1;exitY=0.5;exitDx=0;exitDy=0;entryX=0;entryY=0.5;entryDx=0;entryDy=0;" edge="1" parent="1" source="ZtOH9ILVSErRl7dzAOX0-5" target="ZtOH9ILVSErRl7dzAOX0-6">
          <mxGeometry relative="1" as="geometry" />
        </mxCell>
        <mxCell id="ZtOH9ILVSErRl7dzAOX0-5" value="Transferencia entre&lt;br&gt;sucursales" style="ellipse;whiteSpace=wrap;html=1;" vertex="1" parent="1">
          <mxGeometry x="320" y="280" width="120" height="80" as="geometry" />
        </mxCell>
        <mxCell id="ZtOH9ILVSErRl7dzAOX0-13" style="edgeStyle=orthogonalEdgeStyle;rounded=0;orthogonalLoop=1;jettySize=auto;html=1;exitX=0.5;exitY=0;exitDx=0;exitDy=0;entryX=0.5;entryY=0;entryDx=0;entryDy=0;" edge="1" parent="1" source="ZtOH9ILVSErRl7dzAOX0-6" target="ZtOH9ILVSErRl7dzAOX0-1">
          <mxGeometry relative="1" as="geometry">
            <Array as="points">
              <mxPoint x="620" y="170" />
              <mxPoint x="-60" y="170" />
            </Array>
          </mxGeometry>
        </mxCell>
        <mxCell id="ZtOH9ILVSErRl7dzAOX0-6" value="Confirmacion de&lt;br&gt;entrega" style="ellipse;whiteSpace=wrap;html=1;" vertex="1" parent="1">
          <mxGeometry x="560" y="280" width="120" height="80" as="geometry" />
        </mxCell>
        <mxCell id="ZtOH9ILVSErRl7dzAOX0-7" value="Sistema de gestion&lt;br&gt;de pedidos" style="rounded=0;whiteSpace=wrap;html=1;" vertex="1" parent="1">
          <mxGeometry x="800" y="100" width="120" height="60" as="geometry" />
        </mxCell>
        <mxCell id="ZtOH9ILVSErRl7dzAOX0-14" value="confirmacion&lt;br&gt;de recepcion" style="text;html=1;align=center;verticalAlign=middle;whiteSpace=wrap;rounded=0;" vertex="1" parent="1">
          <mxGeometry x="450" y="470" width="60" height="30" as="geometry" />
        </mxCell>
        <mxCell id="ZtOH9ILVSErRl7dzAOX0-15" value="detalles del&lt;br&gt;pedido" style="text;html=1;align=center;verticalAlign=middle;whiteSpace=wrap;rounded=0;" vertex="1" parent="1">
          <mxGeometry x="410" y="40" width="60" height="30" as="geometry" />
        </mxCell>
        <mxCell id="ZtOH9ILVSErRl7dzAOX0-16" value="registro de transferencia" style="text;html=1;align=center;verticalAlign=middle;whiteSpace=wrap;rounded=0;" vertex="1" parent="1">
          <mxGeometry x="220" y="280" width="60" height="30" as="geometry" />
        </mxCell>
        <mxCell id="ZtOH9ILVSErRl7dzAOX0-17" value="estado de la entrega" style="text;html=1;align=center;verticalAlign=middle;whiteSpace=wrap;rounded=0;" vertex="1" parent="1">
          <mxGeometry x="470" y="280" width="60" height="30" as="geometry" />
        </mxCell>
        <mxCell id="ZtOH9ILVSErRl7dzAOX0-18" value="notificacion de entrega" style="text;html=1;align=center;verticalAlign=middle;whiteSpace=wrap;rounded=0;" vertex="1" parent="1">
          <mxGeometry x="340" y="130" width="60" height="30" as="geometry" />
        </mxCell>
      </root>
    </mxGraphModel>
  </diagram>
</mxfile>
